<?xml version="1.0" encoding="UTF-8" standalone="no"?><!DOCTYPE svg PUBLIC "-//W3C//DTD SVG 1.1//EN" "http://www.w3.org/Graphics/SVG/1.1/DTD/svg11.dtd"><svg width="100%" height="100%" viewBox="0 0 182 124" version="1.1" xmlns="http://www.w3.org/2000/svg" xmlns:xlink="http://www.w3.org/1999/xlink" xml:space="preserve" xmlns:serif="http://www.serif.com/" style="fill-rule:evenodd;clip-rule:evenodd;stroke-linejoin:round;stroke-miterlimit:1.41421;"><clipPath id="_clip1"><rect id="icon-email" x="0.004" y="0.207" width="181.417" height="123.457"/></clipPath><g clip-path="url(#_clip1)"><path d="M0.004,11.569c0.318,-0.948 0.636,-1.895 1.052,-3.133c21.725,20.463 43.286,40.772 64.971,61.197c-21.441,15.981 -42.72,31.842 -64.174,47.832c-0.675,-1.735 -1.262,-3.245 -1.849,-4.755c0,-33.714 0,-67.428 0,-101.141Z" style="fill:#fff;"/><path d="M181.421,112.71c-0.586,1.512 -1.173,3.023 -1.847,4.758c-21.449,-15.988 -42.728,-31.849 -64.175,-47.835c21.66,-20.403 43.199,-40.691 64.951,-61.181c0.404,1.175 0.738,2.146 1.071,3.117c0,33.713 0,67.427 0,101.141Z" style="fill:#fff;"/><path d="M8.549,0.875c2.069,-0.258 3.721,-0.644 5.374,-0.645c51.228,-0.031 102.455,-0.031 153.683,0.002c1.641,0.001 3.282,0.407 4.924,0.625c0.01,0.147 0.021,0.295 0.031,0.442c-3.425,3.24 -6.845,6.486 -10.276,9.721c-5.823,5.489 -11.648,10.976 -17.479,16.456c-6.71,6.307 -13.434,12.599 -20.14,18.911c-6.953,6.546 -13.945,13.053 -20.821,19.679c-6.926,6.673 -17.242,7.422 -24.595,1.237c-5.343,-4.494 -10.314,-9.432 -15.416,-14.211c-8.832,-8.273 -17.643,-16.568 -26.449,-24.869c-5.754,-5.424 -11.48,-10.878 -17.227,-16.31c-3.611,-3.413 -7.239,-6.808 -10.858,-10.213c-0.137,-0.129 -0.255,-0.279 -0.751,-0.825Z" style="fill:#fff;"/><path d="M71.62,75.319c2.729,1.54 5.125,3.225 7.765,4.326c10.3,4.295 19.992,2.926 28.946,-3.662c0.887,-0.653 1.391,-0.75 2.314,-0.054c7.698,5.806 15.442,11.551 23.177,17.309c6.691,4.98 13.394,9.943 20.08,14.928c6.339,4.724 12.665,9.466 18.994,14.205c0.068,0.051 0.092,0.161 0.188,0.337c-1.857,0.935 -3.847,1.068 -5.851,1.068c-29.165,0.008 -58.331,0.007 -87.497,0.008c-21.778,0.001 -43.555,0.018 -65.333,-0.03c-2.024,-0.005 -4.047,-0.432 -6.071,-0.663c-0.018,-0.182 -0.036,-0.365 -0.054,-0.547c21.164,-15.779 42.328,-31.558 63.342,-47.225Z" style="fill:#fff;"/></g></svg>