<?xml version="1.0" encoding="UTF-8" standalone="no"?>
<!-- Created with Inkscape (http://www.inkscape.org/) -->

<svg
   xmlns:dc="http://purl.org/dc/elements/1.1/"
   xmlns:cc="http://creativecommons.org/ns#"
   xmlns:rdf="http://www.w3.org/1999/02/22-rdf-syntax-ns#"
   xmlns:svg="http://www.w3.org/2000/svg"
   xmlns="http://www.w3.org/2000/svg"
   xmlns:sodipodi="http://sodipodi.sourceforge.net/DTD/sodipodi-0.dtd"
   xmlns:inkscape="http://www.inkscape.org/namespaces/inkscape"
   id="svg3243"
   version="1.1"
   inkscape:version="0.48.1 "
   width="766.25"
   height="768.75"
   xml:space="preserve"
   sodipodi:docname="rightarrow2.pdf"><metadata
     id="metadata3249"><rdf:RDF><cc:Work
         rdf:about=""><dc:format>image/svg+xml</dc:format><dc:type
           rdf:resource="http://purl.org/dc/dcmitype/StillImage" /><dc:title></dc:title></cc:Work></rdf:RDF></metadata><defs
     id="defs3247" /><sodipodi:namedview
     pagecolor="#ffffff"
     bordercolor="#666666"
     borderopacity="1"
     objecttolerance="10"
     gridtolerance="10"
     guidetolerance="10"
     inkscape:pageopacity="0"
     inkscape:pageshadow="2"
     inkscape:window-width="640"
     inkscape:window-height="480"
     id="namedview3245"
     showgrid="false"
     inkscape:zoom="0.37853659"
     inkscape:cx="383.125"
     inkscape:cy="384.375"
     inkscape:window-x="543"
     inkscape:window-y="87"
     inkscape:window-maximized="0"
     inkscape:current-layer="g3251" /><g
     id="g3251"
     inkscape:groupmode="layer"
     inkscape:label="rightarrow2"
     transform="matrix(1.25,0,0,-1.25,0,768.75)"><g
       id="g3253"
       transform="scale(0.24,0.24)"><path
         d="m 345.25,2484.25 c -172.27,-0.41 -269.0859,-89.45 -269,-271 l 0,-1876 c -0.0859,-170.078 86.957,-259.1836 259,-259 l 1883,0 c 172.57,-0.1836 259.75,84.484 260,259 l 0,1876 c -0.25,177.11 -87.43,270.59 -265,271 0,0 -1868.637,0.18 -1868,0"
         style="fill:#000000;fill-opacity:1;fill-rule:nonzero;stroke:none"
         id="path3255" /><path
         d="m 345.25,2484.25 c -172.27,-0.41 -269.0859,-89.45 -269,-271 l 0,-1876 c -0.0859,-170.078 86.957,-259.1836 259,-259 l 1883,0 c 172.57,-0.1836 259.75,84.484 260,259 l 0,1876 c -0.25,177.11 -87.43,270.59 -265,271 0,0 -1868.637,0.18 -1868,0 z"
         style="fill:none;stroke:#ffffff;stroke-opacity:1;stroke-width:14.2;stroke-linecap:butt;stroke-linejoin:miter;stroke-miterlimit:10;stroke-dasharray:none"
         id="path3257" /><path
         d="m 1401.25,2049.25 751,-750 -751,-751 -495,0 571,571 -1122,0 0,363 1118,0 -568,568 496,-1"
         style="fill:#ffffff;fill-opacity:1;fill-rule:nonzero;stroke:none"
         id="path3259" /></g></g></svg>