<?xml version="1.0" encoding="UTF-8" standalone="no"?>
<!DOCTYPE svg PUBLIC "-//W3C//DTD SVG 1.1//EN" "http://www.w3.org/Graphics/SVG/1.1/DTD/svg11.dtd">
<svg width="100%" height="100%" viewBox="0 0 626 426" version="1.1" xmlns="http://www.w3.org/2000/svg" xmlns:xlink="http://www.w3.org/1999/xlink" xml:space="preserve" xmlns:serif="http://www.serif.com/" style="fill-rule:evenodd;clip-rule:evenodd;stroke-linejoin:round;stroke-miterlimit:1.41421;">
    <path d="M0,39.205C1.098,35.935 2.197,32.666 3.63,28.397C78.595,99.005 152.993,169.082 227.82,239.561C153.837,294.705 80.409,349.436 6.381,404.613C4.053,398.626 2.026,393.415 0,388.205C0,271.872 0,155.538 0,39.205Z" style="fill:white;"/>
    <path d="M626,388.205C623.976,393.42 621.951,398.636 619.628,404.623C545.615,349.455 472.189,294.724 398.183,239.561C472.923,169.161 547.245,99.153 622.305,28.452C623.698,32.506 624.849,35.855 626,39.206C626,155.538 626,271.872 626,388.205Z" style="fill:white;"/>
    <path d="M29.486,2.306C36.624,1.415 42.326,0.085 48.029,0.081C224.796,-0.028 401.563,-0.028 578.329,0.087C583.993,0.091 589.656,1.492 595.319,2.242C595.356,2.751 595.392,3.26 595.428,3.767C583.61,14.95 571.807,26.15 559.968,37.312C539.877,56.254 519.777,75.185 499.656,94.096C476.502,115.859 453.299,137.57 430.161,159.35C406.167,181.937 382.043,204.389 358.315,227.253C334.417,250.281 298.819,252.863 273.449,231.524C255.011,216.016 237.857,198.976 220.254,182.486C189.779,153.939 159.375,125.315 128.988,96.673C109.133,77.957 89.376,59.137 69.544,40.395C57.083,28.618 44.565,16.902 32.078,5.152C31.605,4.707 31.198,4.191 29.486,2.306Z" style="fill:white;"/>
    <path d="M247.121,259.181C256.537,264.498 264.804,270.312 273.912,274.11C309.455,288.93 342.897,284.206 373.794,261.473C376.856,259.221 378.596,258.885 381.779,261.287C408.341,281.323 435.064,301.147 461.755,321.013C484.842,338.197 507.97,355.325 531.044,372.524C552.917,388.827 574.746,405.188 596.583,421.54C596.818,421.716 596.902,422.096 597.232,422.702C590.824,425.928 583.957,426.387 577.044,426.389C476.404,426.416 375.765,426.413 275.125,426.416C199.979,426.418 124.832,426.479 49.686,426.312C42.702,426.296 35.72,424.823 28.737,424.025C28.675,423.396 28.613,422.766 28.552,422.137C101.581,367.689 174.608,313.243 247.121,259.181Z" style="fill:white;"/>
</svg>
