<?xml version="1.0" encoding="UTF-8" standalone="no"?>
<!DOCTYPE svg PUBLIC "-//W3C//DTD SVG 1.1//EN" "http://www.w3.org/Graphics/SVG/1.1/DTD/svg11.dtd">
<svg width="100%" height="100%" viewBox="0 0 402 402" version="1.1" xmlns="http://www.w3.org/2000/svg" xmlns:xlink="http://www.w3.org/1999/xlink" xml:space="preserve" xmlns:serif="http://www.serif.com/" style="fill-rule:evenodd;clip-rule:evenodd;stroke-linejoin:round;stroke-miterlimit:1.41421;">
    <path d="M201.004,0.003C243.17,0.003 285.335,-0.006 327.501,0.006C368.226,0.017 401.996,33.783 402.001,74.51C402.011,158.841 402.014,243.172 402,327.503C401.992,368.198 368.175,401.995 327.473,402C243.142,402.01 158.811,402.011 74.479,402C33.767,401.994 0.012,368.212 0.007,327.471C-0.003,243.14 -0.003,158.808 0.007,74.477C0.012,33.747 33.76,0.017 74.507,0.006C116.673,-0.005 158.839,0.003 201.004,0.003ZM201.821,167.932C161.792,165.151 128.186,147.991 101.03,116.406C89.277,142.314 94.369,163.73 115.479,181.749C115.23,182.106 114.98,182.465 114.731,182.823C108.087,181.023 101.444,179.224 94.283,177.285C95.959,201.923 109.06,217.437 132.437,225.042C132.295,225.425 132.154,225.808 132.013,226.19C125.491,226.19 118.969,226.19 111.645,226.19C120.119,247.195 135.008,258.214 157.577,260.465C147.009,268.917 135.951,274.313 123.933,277.79C111.96,281.253 99.698,282.37 86.971,281.243C87.426,281.986 87.534,282.347 87.777,282.524C88.447,283.014 89.151,283.466 89.88,283.864C136.97,309.56 184.914,310.93 231.285,284.131C277.089,257.658 298.915,215.449 300.845,162.923C301.034,157.776 302.485,154.6 306.352,151.243C312.913,145.549 318.659,138.916 324.748,132.679C324.423,132.313 324.098,131.947 323.772,131.581C319.721,132.868 315.711,134.31 311.608,135.397C307.449,136.5 303.197,137.251 297.622,138.448C311.692,126.104 316.693,119.39 317.49,112.867C309.182,115.817 300.617,118.864 292.047,121.901C289.161,122.923 287.027,122.409 284.541,120.103C257.85,95.348 213.358,108.124 204.187,143.388C202.189,151.069 202.579,159.37 201.821,167.932Z" style="fill:white;"/>
</svg>
