<?xml version="1.0" standalone="no"?>
<!DOCTYPE svg PUBLIC "-//W3C//DTD SVG 20010904//EN"
 "http://www.w3.org/TR/2001/REC-SVG-20010904/DTD/svg10.dtd">
<svg version="1.0" xmlns="http://www.w3.org/2000/svg"
 width="600.000000pt" height="306.000000pt" viewBox="0 0 600.000000 306.000000"
 preserveAspectRatio="xMidYMid meet">
<metadata>
Created by potrace 1.15, written by Peter Selinger 2001-2017
</metadata>
<g transform="translate(0.000000,306.000000) scale(0.100000,-0.100000)"
fill="#000000" stroke="none">
<path d="M1573 2629 c-176 -29 -331 -151 -392 -308 -70 -175 -39 -377 76 -501
97 -105 243 -160 428 -160 100 0 246 20 345 47 l65 18 3 208 2 207 -172 -2
-173 -3 -3 -32 c-3 -31 -1 -33 26 -33 68 0 91 -53 92 -211 l0 -96 -42 -19
c-65 -29 -160 -25 -231 9 -136 67 -193 203 -184 437 5 142 21 205 71 277 48
70 116 103 210 103 39 0 88 -5 108 -10 64 -18 130 -70 167 -132 32 -55 36 -58
72 -58 l39 0 -6 93 c-4 50 -11 98 -17 104 -5 7 -38 22 -72 32 -122 38 -291 50
-412 30z"/>
<path d="M4800 2465 l0 -165 25 0 c19 0 25 5 25 21 l0 20 26 -20 c48 -37 128
-19 152 34 26 58 6 151 -37 175 -32 17 -85 12 -109 -10 l-22 -21 0 66 0 65
-30 0 -30 0 0 -165z"/>
<path d="M5540 2465 l0 -165 30 0 29 0 3 82 c3 78 4 83 30 98 49 27 63 7 66
-94 l3 -86 29 0 30 0 0 91 c0 86 -9 125 -34 141 -21 15 -74 8 -100 -13 l-26
-20 0 65 0 66 -30 0 -30 0 0 -165z"/>
<path d="M3860 2460 l0 -160 110 0 110 0 0 25 c0 25 -1 25 -80 25 l-80 0 0
135 0 135 -30 0 -30 0 0 -160z"/>
<path d="M5387 2613 c-4 -3 -7 -21 -7 -40 0 -23 -5 -33 -15 -33 -9 0 -15 -9
-15 -25 0 -16 6 -25 15 -25 12 0 15 -15 15 -73 0 -91 15 -117 68 -117 48 0 65
11 55 36 -5 12 -18 19 -33 19 -24 0 -25 3 -28 68 -3 66 -3 67 23 67 20 0 25 5
25 25 0 20 -5 25 -25 25 -22 0 -25 4 -25 40 0 35 -3 40 -23 40 -13 0 -27 -3
-30 -7z"/>
<path d="M430 2218 c-84 -216 -161 -405 -172 -421 -11 -15 -37 -36 -59 -47
-25 -14 -39 -27 -39 -40 0 -19 7 -20 150 -20 l150 0 0 25 c0 14 -6 25 -14 25
-7 0 -25 9 -40 21 -35 28 -34 65 5 173 l32 86 159 0 159 0 20 -47 c11 -27 30
-76 41 -110 19 -59 20 -64 4 -88 -9 -14 -30 -28 -46 -32 -23 -4 -30 -11 -30
-29 l0 -24 230 0 230 0 0 23 c0 17 -9 26 -35 36 -22 8 -45 27 -59 49 -13 20
-93 211 -177 425 l-154 387 -101 0 -101 0 -153 -392z m233 62 c30 -80 58 -153
62 -162 7 -17 -3 -18 -119 -18 -69 0 -126 2 -126 4 0 4 86 241 109 300 6 16
13 27 15 25 3 -2 29 -69 59 -149z"/>
<path d="M2202 2583 c2 -22 10 -29 38 -34 71 -15 70 -10 70 -399 0 -331 -1
-348 -20 -373 -11 -14 -35 -28 -55 -31 -29 -6 -35 -11 -35 -32 l0 -24 437 2
438 3 17 90 c9 50 17 93 17 98 1 4 -14 7 -32 7 -26 0 -42 -10 -76 -44 -69 -70
-125 -90 -256 -90 -127 -1 -166 13 -184 65 -6 18 -11 97 -11 177 l0 144 118
-4 c134 -5 167 -17 202 -80 17 -31 27 -38 51 -38 l29 0 0 150 0 150 -32 0
c-27 0 -36 -6 -48 -33 -8 -17 -30 -42 -49 -54 -30 -21 -46 -23 -152 -23 l-119
0 0 165 0 165 138 0 c75 0 154 -5 176 -11 21 -6 60 -30 86 -55 31 -29 56 -44
74 -44 l26 0 0 90 0 90 -426 0 -425 0 3 -27z"/>
<path d="M4138 2528 c-30 -10 -33 -15 -19 -37 6 -10 13 -11 29 -2 47 25 102 8
102 -31 0 -16 -5 -18 -33 -13 -41 8 -101 -15 -116 -44 -37 -68 51 -126 128
-86 26 13 30 13 41 0 7 -8 23 -15 36 -15 19 0 24 5 24 24 0 14 -4 28 -10 31
-5 3 -10 30 -10 60 0 65 -14 99 -47 114 -29 13 -88 13 -125 -1z"/>
<path d="M4380 2420 l0 -120 30 0 30 0 0 78 c0 87 17 117 62 110 22 -3 23 -7
26 -95 l3 -93 29 0 30 0 0 73 c0 60 4 77 20 95 23 24 50 28 68 10 7 -7 12 -44
12 -95 l0 -83 30 0 30 0 0 91 c0 86 -9 125 -34 141 -22 15 -74 8 -100 -13
l-27 -22 -15 22 c-20 28 -82 29 -118 0 l-26 -20 0 20 c0 16 -6 21 -25 21 l-25
0 0 -120z"/>
<path d="M5145 2531 c-51 -22 -80 -88 -64 -145 23 -83 132 -116 199 -59 32 26
32 27 10 35 -14 5 -29 3 -43 -7 -29 -20 -70 -19 -90 3 -33 36 -22 42 74 42
l92 0 -6 42 c-8 58 -42 90 -104 94 -26 2 -57 0 -68 -5z"/>
<path d="M2608 1617 c-69 -47 -145 -135 -178 -204 -11 -23 -21 -43 -23 -43 -2
0 -1 29 1 64 4 60 3 65 -22 81 -14 10 -32 15 -39 12 -7 -2 -18 -33 -26 -68
-33 -162 -119 -322 -192 -357 -39 -19 -89 -21 -89 -4 0 3 12 34 26 70 61 152
61 251 0 280 -25 13 -31 12 -55 -5 -14 -10 -39 -44 -54 -75 -37 -72 -45 -152
-23 -234 9 -34 16 -69 16 -78 0 -25 -64 -89 -113 -114 -87 -44 -109 -24 -109
97 1 113 53 260 98 278 20 8 32 -11 26 -43 -2 -13 0 -24 5 -24 19 0 43 37 43
66 0 42 -25 72 -66 80 -31 6 -40 2 -69 -26 -75 -73 -119 -198 -113 -326 l3
-83 -38 -21 c-55 -31 -64 -19 -73 101 -6 90 -9 101 -32 119 -49 39 -65 29
-112 -70 -23 -50 -44 -89 -47 -87 -2 3 1 35 7 73 12 76 6 137 -16 155 -8 6
-31 12 -51 13 -34 1 -39 -3 -61 -44 -14 -25 -52 -90 -86 -144 l-61 -99 -6 57
c-8 70 -33 108 -81 120 -92 23 -166 -32 -248 -182 -123 -228 -191 -322 -294
-409 -175 -149 -249 -10 -152 281 41 124 140 324 207 421 54 79 159 186 203
209 87 44 108 -86 36 -229 l-30 -60 21 -17 c45 -38 84 -14 117 73 48 131 35
258 -35 319 -33 29 -41 32 -89 28 -68 -6 -139 -52 -246 -158 -131 -132 -247
-327 -304 -516 -24 -77 -28 -107 -28 -224 -1 -126 1 -138 24 -180 14 -24 40
-55 59 -67 46 -31 127 -31 190 -1 61 29 179 149 216 220 17 32 33 58 38 58 4
0 7 -14 7 -30 0 -81 52 -136 121 -127 77 10 145 81 205 217 16 36 62 110 103
165 41 55 91 126 112 158 21 32 40 53 44 47 7 -12 -11 -181 -25 -230 -5 -19
-10 -54 -10 -78 0 -36 4 -44 26 -54 25 -11 29 -10 54 21 16 18 49 71 75 117
43 77 65 101 65 73 0 -6 10 -33 21 -60 28 -65 65 -87 108 -64 16 8 39 28 51
45 l21 29 27 -30 c60 -66 148 -43 250 66 43 45 63 60 73 54 22 -14 78 -10 115
7 64 31 128 121 175 249 l19 50 -7 -65 c-3 -36 -7 -74 -7 -85 -1 -30 36 -30
71 -1 23 19 32 36 35 71 13 111 133 264 238 301 l55 19 3 48 c3 41 1 47 -17
47 -11 0 -48 -19 -83 -43z m-1606 -554 c26 -23 23 -96 -6 -153 -18 -37 -28
-46 -54 -48 -45 -5 -66 31 -60 103 7 89 72 142 120 98z m-123 -245 c17 -15 38
-28 46 -28 21 0 -24 -87 -72 -140 -56 -63 -93 -50 -93 31 0 49 31 162 58 214
l16 30 7 -39 c4 -27 17 -49 38 -68z"/>
<path d="M2808 1573 c-31 -34 -115 -148 -121 -165 -10 -29 -14 1 -7 56 7 66
-4 79 -45 52 -29 -19 -43 -64 -51 -166 -6 -67 -4 -78 16 -102 12 -16 25 -28
30 -28 5 0 42 48 82 107 l73 107 7 -48 c8 -58 29 -83 81 -97 44 -12 129 -1
188 24 52 22 153 102 182 145 26 37 35 72 20 72 -5 0 -43 -23 -87 -50 -146
-94 -234 -128 -282 -110 -32 13 -39 48 -21 117 16 65 7 113 -22 113 -10 0 -29
-12 -43 -27z"/>
<path d="M2915 1046 c-277 -97 -466 -176 -715 -301 -275 -138 -321 -165 -348
-205 -52 -77 -37 -121 25 -73 89 71 324 213 573 346 161 86 395 189 640 281
141 53 23 21 -175 -48z"/>
</g>
</svg>
