<?xml version="1.0" encoding="UTF-8" standalone="no"?><!DOCTYPE svg PUBLIC "-//W3C//DTD SVG 1.1//EN" "http://www.w3.org/Graphics/SVG/1.1/DTD/svg11.dtd"><svg width="100%" height="100%" viewBox="0 0 153 180" version="1.1" xmlns="http://www.w3.org/2000/svg" xmlns:xlink="http://www.w3.org/1999/xlink" xml:space="preserve" xmlns:serif="http://www.serif.com/" style="fill-rule:evenodd;clip-rule:evenodd;stroke-linejoin:round;stroke-miterlimit:1.41421;"><g id="logo-personal"><path id="Pacman" d="M0.182,3.776l0.794,171.812c0,0 24.274,4.061 41.111,3.84c16.836,-0.22 85.615,-7.156 84.413,-90.379c-1.203,-83.223 -70.182,-88.936 -82.208,-88.936c-12.026,0 -44.11,3.663 -44.11,3.663Zm93.974,104.17c-1.313,2.817 -6.424,15.839 -18.614,24.834c-28.395,20.955 -57.548,2.349 -57.548,2.349c0,0 23.669,-45.634 0,-90.708c-0.031,-0.06 46.354,-31.843 76.342,26.735l-38.941,18.632l38.761,18.158Zm21.097,-24.639c3.541,0 6.415,2.882 6.415,6.432c0,3.55 -2.874,6.433 -6.415,6.433c-3.54,0 -6.415,-2.883 -6.415,-6.433c0,-3.55 2.875,-6.432 6.415,-6.432Zm-22.345,0c3.541,0 6.415,2.882 6.415,6.432c0,3.55 -2.874,6.433 -6.415,6.433c-3.541,0 -6.415,-2.883 -6.415,-6.433c0,-3.55 2.874,-6.432 6.415,-6.432Z" style="fill:#fff;"/><ellipse id="Food" cx="143.601" cy="89.775" rx="8.609" ry="8.692" style="fill:#fff;"/><ellipse id="Eye" cx="64.169" cy="69.38" rx="4.251" ry="4.26" style="fill:#fff;"/></g></svg>