<?xml version="1.0" encoding="UTF-8" standalone="no"?><!DOCTYPE svg PUBLIC "-//W3C//DTD SVG 1.1//EN" "http://www.w3.org/Graphics/SVG/1.1/DTD/svg11.dtd"><svg width="100%" height="100%" viewBox="0 0 144 144" version="1.1" xmlns="http://www.w3.org/2000/svg" xmlns:xlink="http://www.w3.org/1999/xlink" xml:space="preserve" xmlns:serif="http://www.serif.com/" style="fill-rule:evenodd;clip-rule:evenodd;stroke-linejoin:round;stroke-miterlimit:1.41421;"><clipPath id="_clip1"><rect id="logo-uu" x="0.069" y="0.165" width="143.84" height="143.415"/></clipPath><g clip-path="url(#_clip1)"><rect id="path3147" x="-0.594" y="0.213" width="143.558" height="143.027" style="fill:#fff;fill-rule:nonzero;"/><path id="path3151" d="M120.975,0.214c0,0 -8.657,7.933 -8.657,22.705l0,49.658c0,15.189 0,50.957 -49.526,50.957c-47.42,0 -47.42,-37.105 -47.42,-48.517l0,-59.367c0,-9.436 -6.356,-15.436 -6.356,-15.436l-9.628,0l0,143.04l143.582,0l0,-143.04l-21.995,0Zm-52.825,114.944c14.918,0 25.808,-6.085 31.352,-15.03c2.494,-4.179 4.403,-10.464 4.403,-25.872l0,-51.381c0,-14.234 -8.278,-22.661 -8.278,-22.661l-53.912,0c0,0 -6.836,6.099 -6.836,15.436l0,60.887c0,12.169 0,38.621 33.271,38.621" style="fill:#013878;fill-rule:nonzero;"/><path id="path3155" d="M142.977,46.886c-10.099,1.178 -12.326,3.377 -12.326,18.779l0,38.304c0,11.733 0,39.322 -33.961,39.322c-32.519,0 -32.519,-28.611 -32.519,-37.417l0,-45.783c0,-10.857 -1.838,-12.471 -11.801,-13.205l0,-2.789l37.108,0l0,2.789c-10.356,0.883 -11.933,2.785 -11.933,13.205l0,46.961c0,9.381 0,29.781 22.824,29.781c10.214,0 17.69,-4.69 21.497,-11.591c1.706,-3.225 3.015,-8.071 3.015,-19.954l0,-39.623c0,-15.699 -3.773,-18.19 -12.569,-18.779l0,-2.789l30.665,0l0,2.789Z" style="fill:#00aef1;fill-rule:nonzero;"/><path id="path3159" d="M142.97,0.214l-21.995,0c0,0 -8.657,7.933 -8.657,22.705l0,21.227l30.652,0l0,-43.932Z" style="fill:#62bb47;fill-rule:nonzero;"/></g></svg>