<?xml version="1.0" encoding="UTF-8" standalone="no"?>
<svg width="823px" height="205px" viewBox="0 0 823 205" version="1.1" xmlns="http://www.w3.org/2000/svg" xmlns:xlink="http://www.w3.org/1999/xlink" xmlns:sketch="http://www.bohemiancoding.com/sketch/ns">
    <!-- Generator: Sketch 3.3.2 (12043) - http://www.bohemiancoding.com/sketch -->
    <title>jiraagile_rgb_blue</title>
    <desc>Created with Sketch.</desc>
    <defs>
        <path id="path-1" d="M0,0.976 L822.383,0.976 L822.383,204.94 L0,204.94 L0,0.976 Z"></path>
    </defs>
    <g id="Page-1" stroke="none" stroke-width="1" fill="none" fill-rule="evenodd" sketch:type="MSPage">
        <g id="jiraagile_rgb_blue" sketch:type="MSLayerGroup">
            <path d="M485.082,166.917 L498.275,166.917 C499.143,166.917 499.911,166.357 500.178,165.533 L535.238,57.304 L556.183,122.328 L527.594,122.328 C526.726,122.328 525.956,122.888 525.689,123.715 L522.1,134.864 C521.904,135.473 522.011,136.139 522.388,136.654 C522.764,137.172 523.364,137.477 524.004,137.477 L560.668,137.477 L570.313,165.566 C570.591,166.374 571.351,166.917 572.205,166.917 L585.408,166.917 C586.053,166.917 586.657,166.606 587.033,166.083 C587.408,165.559 587.51,164.888 587.303,164.277 L546.848,44.386 C546.574,43.573 545.811,43.025 544.953,43.025 L525.537,43.025 C524.679,43.025 523.916,43.573 523.643,44.386 L483.187,164.277 C482.98,164.888 483.082,165.559 483.457,166.083 C483.833,166.606 484.437,166.917 485.082,166.917" id="Fill-1" fill="#274970" sketch:type="MSShapeGroup"></path>
            <g id="Group-5">
                <mask id="mask-2" sketch:name="Clip 3" fill="white">
                    <use xlink:href="#path-1"></use>
                </mask>
                <g id="Clip-3"></g>
                <path d="M806.148,113.868 L769.096,113.868 L769.096,107.182 C769.096,94.161 774.951,88.355 788.08,88.355 C801.082,88.355 806.148,93.634 806.148,107.182 L806.148,113.868 L806.148,113.868 Z M788.449,168.752 C799.062,168.752 810.569,166.952 819.229,163.939 C820.147,163.62 820.703,162.686 820.546,161.727 L818.938,151.922 C818.848,151.369 818.529,150.879 818.06,150.572 C817.731,150.357 817.35,150.245 816.965,150.245 C816.8,150.245 816.633,150.266 816.471,150.307 C806.465,152.861 797.471,154.156 789.738,154.156 C773.726,154.156 769.096,149.85 769.096,134.961 L769.096,128.094 L820.383,128.094 C821.487,128.094 822.383,127.199 822.383,126.094 L822.383,108.653 C822.383,85.417 811.162,74.122 788.08,74.122 C776.394,74.122 767.421,77.025 761.408,82.752 C755.367,88.504 752.305,97.095 752.305,108.284 L752.305,135.146 C752.305,158.073 763.79,168.752 788.449,168.752 L788.449,168.752 Z" id="Fill-2" fill="#274970" sketch:type="MSShapeGroup" mask="url(#mask-2)"></path>
                <path d="M648.158,109.572 C648.158,121.446 642.075,126.742 628.436,126.742 C613.689,126.742 608.713,122.409 608.713,109.572 L608.713,105.707 C608.713,92.759 613.874,88.17 628.436,88.17 C642.812,88.17 648.158,92.923 648.158,105.707 L648.158,109.572 L648.158,109.572 Z M604.828,135.045 C601.55,137.783 596.887,143.039 596.887,150.786 C596.887,157.875 600.023,166.588 614.969,167.835 C620.893,168.353 624.523,168.697 628.367,169.062 L629.488,169.169 C632.097,169.422 634.904,169.693 638.654,170.04 C649.397,170.98 651.285,172.338 651.285,179.119 C651.285,187.538 650.352,190.955 626.965,190.955 C618.644,190.955 607.739,189.668 598.505,187.594 C598.359,187.561 598.213,187.545 598.066,187.545 C597.677,187.545 597.292,187.659 596.962,187.878 C596.508,188.179 596.196,188.652 596.099,189.187 L594.358,198.77 C594.171,199.803 594.814,200.805 595.831,201.064 C605.949,203.647 619.339,205 627.336,205 C644.078,205 653.681,203.245 659.445,199.132 C666.223,194.297 667.156,186.304 667.156,178.387 C667.156,164.288 660.484,157.855 644.127,156.184 C638.348,155.615 634.326,155.2 630.379,154.789 L628.704,154.616 C625.657,154.3 622.596,153.982 618.772,153.608 C614.87,153.254 613.492,152.082 613.492,149.129 C613.492,145.74 616.326,142.867 619.451,140.268 C622.162,140.615 625.185,140.791 628.436,140.791 C639.926,140.791 648.837,138.123 654.92,132.861 C661.088,127.527 664.215,119.691 664.215,109.572 L664.215,105.557 C664.215,105.54 664.215,105.522 664.214,105.505 C664.025,98.316 662.509,92.484 659.707,88.147 L668.269,86.52 C669.214,86.342 669.896,85.516 669.896,84.556 L669.896,77.963 C669.896,76.857 669.001,75.963 667.896,75.963 L643.607,75.963 C639.08,74.604 632.617,74.122 628.436,74.122 C604.15,74.122 592.84,84.1 592.84,105.524 L592.84,109.572 C592.84,121.568 596.872,130.133 604.828,135.045 L604.828,135.045 Z" id="Fill-4" fill="#274970" sketch:type="MSShapeGroup" mask="url(#mask-2)"></path>
            </g>
            <path d="M685.459,166.916 L698.246,166.916 C699.351,166.916 700.246,166.02 700.246,164.916 L700.246,77.702 C700.246,76.598 699.351,75.702 698.246,75.702 L685.459,75.702 C684.354,75.702 683.459,76.598 683.459,77.702 L683.459,164.916 C683.459,166.02 684.354,166.916 685.459,166.916" id="Fill-6" fill="#274970" sketch:type="MSShapeGroup"></path>
            <path d="M685.459,59.944 L698.246,59.944 C699.351,59.944 700.246,59.049 700.246,57.944 L700.246,41.426 C700.246,40.322 699.351,39.426 698.246,39.426 L685.459,39.426 C684.354,39.426 683.459,40.322 683.459,41.426 L683.459,57.944 C683.459,59.049 684.354,59.944 685.459,59.944" id="Fill-7" fill="#274970" sketch:type="MSShapeGroup"></path>
            <path d="M720.818,166.916 L733.602,166.916 C734.706,166.916 735.602,166.02 735.602,164.916 L735.602,41.426 C735.602,40.322 734.706,39.426 733.602,39.426 L720.818,39.426 C719.714,39.426 718.818,40.322 718.818,41.426 L718.818,164.916 C718.818,166.02 719.714,166.916 720.818,166.916" id="Fill-8" fill="#274970" sketch:type="MSShapeGroup"></path>
            <path d="M223.857,43 L204.525,43 C202.785,43 201.375,44.411 201.375,46.15 L201.375,163.776 C201.375,165.516 202.785,166.927 204.525,166.927 L223.857,166.927 C225.598,166.927 227.008,165.516 227.008,163.776 L227.008,46.15 C227.008,44.411 225.598,43 223.857,43" id="Fill-9" fill="#274970" sketch:type="MSShapeGroup"></path>
            <path d="M178.582,43 L159.014,43 C157.357,43 156.006,44.345 156.006,46 L156.006,138.043 C156.006,149.61 147.191,153.412 141.227,153.716 C140.422,153.755 139.486,154.262 138.973,155.013 C138.457,155.766 138.312,156.713 138.58,157.585 L143.338,173.061 C143.727,174.328 145.092,175.141 147.312,175.141 C166.035,175.141 181.582,160.442 181.582,140.738 L181.582,46.002 C181.582,45.206 181.266,44.442 180.703,43.879 C180.141,43.316 179.377,43 178.582,43" id="Fill-10" fill="#274970" sketch:type="MSShapeGroup"></path>
            <path d="M27.051,10.911 C21.039,10.911 16.17,15.774 16.17,21.801 C16.17,27.812 21.039,32.692 27.051,32.692 C33.068,32.692 37.93,27.812 37.93,21.801 C37.93,15.774 33.068,10.911 27.051,10.911" id="Fill-11" fill="#274970" sketch:type="MSShapeGroup"></path>
            <path d="M98.531,10.911 C92.516,10.911 87.654,15.774 87.654,21.801 C87.654,27.812 92.516,32.692 98.531,32.692 C104.529,32.692 109.408,27.812 109.408,21.801 C109.408,15.774 104.529,10.92 98.531,10.911" id="Fill-12" fill="#274970" sketch:type="MSShapeGroup"></path>
            <g id="Group-16" fill="#274970" sketch:type="MSShapeGroup">
                <path d="M62.791,0.976 C56.779,0.976 51.91,5.837 51.91,11.866 C51.91,17.878 56.779,22.758 62.791,22.758 C68.807,22.758 73.668,17.878 73.668,11.866 C73.668,5.837 68.807,0.976 62.791,0.976" id="Fill-13"></path>
                <path d="M124.252,41.255 C123.646,40.795 122.918,40.556 122.18,40.556 C121.771,40.556 121.357,40.631 120.965,40.782 C113.598,43.599 106.117,45.738 99.289,47.328 C97.897,47.654 96.772,48.687 96.305,49.93 C91.33,63.557 78.627,76.532 65.299,90.124 C64.764,90.632 64.014,91.302 62.795,91.302 C61.578,91.302 60.836,90.653 60.291,90.124 C46.965,76.532 34.262,63.602 29.285,49.974 C28.818,48.733 27.693,47.699 26.303,47.374 C19.471,45.782 11.971,43.577 4.613,40.76 C4.219,40.61 3.805,40.535 3.394,40.535 C2.656,40.535 1.941,40.767 1.338,41.228 C0.394,41.948 -0.096,43.116 0.016,44.238 C1.144,55.57 5.621,66.648 13.703,78.257 C21.299,89.172 31.207,99.274 40.785,109.043 C58.436,127.046 75.109,144.049 76.572,163.766 C76.703,165.544 78.186,166.923 79.973,166.923 L100.709,166.923 C101.643,166.923 102.535,166.539 103.18,165.862 C103.822,165.186 104.162,164.278 104.115,163.344 C103.463,150.162 98.502,136.961 88.949,122.991 C86.947,120.061 84.803,117.212 82.561,114.423 C81.65,113.287 82.031,111.876 82.728,111.164 C83.416,110.459 84.109,109.756 84.805,109.043 C94.385,99.272 104.291,89.172 111.889,78.257 C119.969,66.646 124.445,55.634 125.574,44.304 C125.687,43.165 125.17,41.957 124.252,41.255" id="Fill-15"></path>
            </g>
            <path d="M40.543,124.38 C40.053,123.867 39.332,123.343 38.121,123.343 C36.574,123.343 35.656,124.413 35.309,124.943 C26.586,138.216 22.082,150.743 21.459,163.332 C21.414,164.26 21.756,165.182 22.398,165.86 C23.043,166.534 23.947,166.923 24.879,166.923 L45.58,166.923 C47.361,166.923 48.861,165.529 48.992,163.753 C49.443,157.686 51.332,151.603 54.772,145.213 C55.963,143.002 55.037,140.925 54.35,140.037 C50.937,135.6 46.76,130.867 40.543,124.38" id="Fill-17" fill="#274970" sketch:type="MSShapeGroup"></path>
            <path d="M62.814,51.414 C69.312,51.414 73.082,51.024 74.406,51.024 C76.01,51.024 77.543,52.338 77.543,54.178 C77.543,54.715 77.416,55.099 77.289,55.437 C76.428,57.742 72.5,66.032 65.187,73.143 C64.367,73.941 63.437,74.091 62.797,74.091 L62.789,74.091 C62.15,74.091 61.221,73.941 60.4,73.143 C53.088,66.032 49.158,57.742 48.299,55.437 C48.172,55.099 48.045,54.715 48.045,54.178 C48.045,52.338 49.58,51.024 51.184,51.024 C52.508,51.024 56.275,51.414 62.771,51.414 L62.814,51.414" id="Fill-18" fill="#274970" sketch:type="MSShapeGroup"></path>
            <path d="M312.686,90.944 C312.686,100.958 308.848,104.335 297.475,104.335 L272.978,104.335 L272.978,65.903 L297.475,65.903 C310.143,65.903 312.686,70.889 312.686,78.932 L312.686,90.944 L312.686,90.944 Z M361.963,166.927 C363.359,166.927 364.588,166.009 364.984,164.669 L390.523,78.159 C390.523,78.159 391.191,75.999 393.504,75.999 C395.855,75.999 396.428,78.245 396.428,78.247 L408.277,119.27 L391.998,119.27 C390.586,119.27 389.348,120.209 388.965,121.567 L384.398,137.807 C384.131,138.757 384.324,139.776 384.92,140.561 C385.516,141.348 386.443,141.809 387.43,141.809 L414.902,141.809 L422.039,164.713 C422.449,166.03 423.668,166.927 425.047,166.927 L445.293,166.927 C446.297,166.927 447.24,166.45 447.832,165.64 C448.426,164.83 448.598,163.786 448.297,162.829 L411.211,45.204 C410.797,43.892 409.582,43 408.207,43 L378.812,43 C377.437,43 376.221,43.892 375.809,45.204 L341.791,153.098 L320.855,122.899 C332.445,118.091 338.32,108.015 338.32,92.946 L338.32,77.112 C338.32,53.52 326.002,43 298.383,43 L250.496,43 C248.756,43 247.346,44.411 247.346,46.15 L247.346,163.776 C247.346,165.516 248.756,166.927 250.496,166.927 L269.828,166.927 C271.568,166.927 272.978,165.516 272.978,163.776 L272.978,126.886 L292.764,126.886 L319.672,165.575 C320.26,166.421 321.227,166.927 322.258,166.927 L361.963,166.927 L361.963,166.927 Z" id="Fill-19" fill="#274970" sketch:type="MSShapeGroup"></path>
        </g>
    </g>
</svg>