<?xml version="1.0" encoding="utf-8"?>
<!-- Generator: Adobe Illustrator 21.0.0, SVG Export Plug-In . SVG Version: 6.00 Build 0)  -->
<svg version="1.1" xmlns="http://www.w3.org/2000/svg" xmlns:xlink="http://www.w3.org/1999/xlink" x="0px" y="0px"
	 viewBox="0 0 492.4 619.3" style="enable-background:new 0 0 492.4 619.3;" xml:space="preserve">
<style type="text/css">
	.st0{fill:#8CC04B;}
	.st1{fill:#C7053D;}
</style>
<g id="Layer_1">
	<path d="M133.3,0c-3.2,0.1-6.6,1.3-10.5,4.3c-9.5-3.6-18.7-4.9-27,2.5c-12.7-1.6-16.9,1.7-20,5.7c-2.8-0.1-20.9-2.8-29.2,9.4
		c-20.9-2.4-27.5,12.1-20,25.7c-4.3,6.5-8.7,12.9,1.3,25.3c-3.5,6.9-1.3,14.4,7,23.5c-2.2,9.7,2.1,16.6,9.9,21.9
		c-1.4,13.3,12.4,21,16.5,23.8c1.6,7.7,4.9,15,20.7,19.1c2.6,11.5,12.1,13.5,21.3,16c-30.4,17.4-56.4,40.3-56.2,96.4l-4.4,7.8
		C7.6,302-23.7,369.1,25.3,423.5c3.2,17.1,8.6,29.3,13.3,42.9c7.1,54.6,53.8,80.2,66.1,83.2c18,13.5,37.2,26.4,63.2,35.3
		c24.5,24.9,51,34.4,77.7,34.3c0.4,0,0.8,0,1.2,0c26.7,0,53.2-9.5,77.7-34.3c26-9,45.2-21.8,63.2-35.3c12.3-3,58.9-28.6,66.1-83.2
		c4.8-13.6,10.1-25.8,13.3-42.9c49-54.5,17.7-121.5-17.2-142.4l-4.5-7.8c0.2-56.1-25.9-79-56.2-96.4c9.2-2.4,18.7-4.4,21.3-16
		c15.8-4,19.1-11.3,20.7-19.1c4.1-2.8,17.9-10.5,16.5-23.8c7.7-5.3,12-12.2,9.9-21.9c8.3-9.1,10.5-16.6,7-23.5
		c10-12.4,5.6-18.8,1.3-25.3c7.5-13.6,0.9-28.1-20-25.7c-8.3-12.2-26.4-9.4-29.2-9.4c-3.1-3.9-7.3-7.3-20-5.7
		c-8.2-7.4-17.5-6.1-27-2.5c-11.3-8.8-18.8-1.7-27.3,0.9c-13.7-4.4-16.8,1.6-23.5,4.1c-14.9-3.1-19.5,3.7-26.6,10.8l-8.3-0.2
		c-22.5,13.1-33.7,39.7-37.6,53.3c-4-13.7-15.1-40.3-37.6-53.3l-8.3,0.2c-7.2-7.1-11.7-13.9-26.6-10.8c-6.7-2.5-9.8-8.5-23.5-4.1
		C144.5,3.5,139.3-0.2,133.3,0L133.3,0z"/>
	<path class="st0" d="M88.5,57.5c59.7,30.3,94.4,54.8,113.4,75.7c-9.7,38.4-60.5,40.2-79.1,39.1c3.8-1.7,7-3.8,8.1-7
		c-4.7-3.3-21.2-0.3-32.7-6.7c4.4-0.9,6.5-1.8,8.6-5c-10.9-3.4-22.6-6.4-29.5-12c3.7,0,7.2,0.8,12.1-2.5
		c-9.8-5.2-20.2-9.3-28.3-17.2c5-0.1,10.5,0,12.1-1.9c-8.9-5.5-16.5-11.5-22.7-18.1c7.1,0.8,10,0.1,11.8-1.1
		c-6.8-6.8-15.3-12.6-19.4-21c5.2,1.8,10,2.5,13.5-0.2c-2.3-5.1-12.1-8.1-17.8-20c5.5,0.5,11.4,1.2,12.5,0
		c-2.6-10.3-7-16.1-11.3-22.1c11.8-0.2,29.7,0,28.9-0.9l-7.3-7.4c11.5-3.1,23.3,0.5,31.9,3.1c3.8-3-0.1-6.8-4.8-10.6
		c9.8,1.3,18.7,3.5,26.7,6.6c4.3-3.8-2.8-7.6-6.2-11.4c15.2,2.8,21.6,6.8,28,10.8c4.6-4.4,0.3-8.1-2.9-11.9
		c11.4,4.2,17.3,9.5,23.5,14.9c2.1-2.8,5.3-4.8,1.4-11.6c8.1,4.6,14.2,10,18.7,16.1c5-3.1,3-7.5,3-11.4c8.4,6.8,13.8,13.9,20.3,21
		c1.3-0.9,2.5-4.2,3.5-9.2c20.1,19.2,48.5,67.6,7.3,86.8C176.8,93.7,134.9,73,88.5,57.5L88.5,57.5z"/>
	<path class="st0" d="M405.2,57.5c-59.7,30.3-94.4,54.8-113.4,75.7c9.7,38.4,60.5,40.2,79.1,39.1c-3.8-1.7-7-3.8-8.1-7
		c4.7-3.3,21.2-0.3,32.7-6.7c-4.4-0.9-6.5-1.8-8.6-5c10.9-3.4,22.6-6.4,29.5-12c-3.7,0-7.2,0.8-12.1-2.5c9.8-5.2,20.2-9.3,28.3-17.2
		c-5-0.1-10.5,0-12.1-1.9c8.9-5.5,16.5-11.5,22.7-18.1c-7.1,0.8-10,0.1-11.8-1.1c6.8-6.8,15.3-12.6,19.4-21
		c-5.2,1.8-10,2.5-13.5-0.2c2.3-5.1,12.1-8.1,17.8-20c-5.5,0.5-11.4,1.2-12.5,0c2.6-10.3,7-16.1,11.3-22.1
		c-11.8-0.2-29.7,0-28.9-0.9l7.3-7.4c-11.5-3.1-23.4,0.5-31.9,3.1c-3.8-3,0.1-6.8,4.8-10.6c-9.8,1.3-18.7,3.5-26.7,6.6
		c-4.3-3.8,2.8-7.6,6.2-11.4c-15.2,2.8-21.6,6.8-28,10.8c-4.6-4.4-0.3-8.1,2.9-11.9c-11.4,4.2-17.3,9.5-23.5,14.9
		c-2.1-2.8-5.3-4.8-1.4-11.6c-8.1,4.6-14.2,10-18.7,16.1c-5-3.1-3-7.5-3-11.4c-8.4,6.8-13.8,13.9-20.3,21c-1.3-0.9-2.5-4.2-3.5-9.2
		c-20.1,19.2-48.5,67.6-7.3,86.8C316.9,93.7,358.8,73,405.2,57.5L405.2,57.5z"/>
	<g>
		<path class="st1" d="M322.3,448.8c0.2,35.9-31.6,65.1-71.1,65.3c-39.5,0.2-71.7-28.7-71.9-64.6c0-0.2,0-0.5,0-0.7
			c-0.2-35.9,31.6-65.1,71.1-65.3c39.5-0.2,71.7,28.7,71.9,64.6C322.3,448.4,322.3,448.6,322.3,448.8z"/>
		<path class="st1" d="M209.4,263.3c29.6,19.1,35,62.5,11.9,96.8c-23,34.3-65.7,46.7-95.4,27.6l0,0c-29.6-19.1-35-62.5-11.9-96.8
			C137.1,256.5,179.8,244.2,209.4,263.3L209.4,263.3z"/>
		<path class="st1" d="M289.4,259.9c-29.6,19.1-35,62.5-11.9,96.8c23,34.3,65.7,46.7,95.4,27.6l0,0c29.6-19.1,35-62.5,11.9-96.8
			C361.7,253.1,319,240.7,289.4,259.9L289.4,259.9z"/>
		<path class="st1" d="M61.4,294.6c32-8.4,10.8,130.3-15.2,119C17.5,390.9,8.3,324.4,61.4,294.6z"/>
		<path class="st1" d="M431,292.9c-32-8.4-10.8,130.3,15.2,119C474.9,389.1,484.1,322.7,431,292.9L431,292.9z"/>
		<path class="st1" d="M322.3,189.5c55.2-9.2,101.1,23.1,99.3,82.1C419.8,294.2,302,192.9,322.3,189.5z"/>
		<path class="st1" d="M169.8,187.8c-55.2-9.2-101.1,23.1-99.3,82.1C72.3,292.5,190.1,191.1,169.8,187.8z"/>
		<path class="st1" d="M249.1,174c-32.9-0.8-64.6,24.1-64.6,38.5c-0.1,17.6,26,35.6,64.9,36c39.6,0.3,64.9-14.4,65.1-32.5
			C314.5,195.5,278.3,173.7,249.1,174L249.1,174z"/>
		<path class="st1" d="M251.1,534.3c28.7-1.2,67.3,9.1,67.3,22.8c0.5,13.3-35,43.4-69.2,42.9c-35.5,1.5-70.3-28.7-69.9-39.1
			C178.8,545.6,222.6,533.6,251.1,534.3L251.1,534.3z"/>
		<path class="st1" d="M145,452.9c20.4,24.3,29.8,66.9,12.7,79.5c-16.1,9.6-55.4,5.6-83.2-33.8c-18.8-33.1-16.4-66.8-3.2-76.7
			C91.1,410.1,121.5,426.1,145,452.9L145,452.9z"/>
		<path class="st1" d="M353.1,445.3c-22.1,25.5-34.4,72.1-18.3,87.1c15.4,11.6,56.9,10,87.5-31.8c22.2-28.1,14.8-75,2.1-87.5
			C405.5,398.7,378.4,417.1,353.1,445.3L353.1,445.3z"/>
	</g>
</g>
<g id="Layer_2">
</g>
</svg>
