<?xml version="1.0" encoding="UTF-8" standalone="no"?><!DOCTYPE svg PUBLIC "-//W3C//DTD SVG 1.1//EN"
        "http://www.w3.org/Graphics/SVG/1.1/DTD/svg11.dtd">
<svg width="100%" height="100%" viewBox="0 0 362 181" version="1.1" xmlns="http://www.w3.org/2000/svg" xmlns:xlink="http://www.w3.org/1999/xlink" xml:space="preserve" xmlns:serif="http://www.serif.com/" style="fill-rule:evenodd;clip-rule:evenodd;stroke-linejoin:round;stroke-miterlimit:1.5;">
    <defs>
      <style type="text/css">
        @import url('https://fonts.googleapis.com/css?family=Dosis|Sigmar+One');
     </style>
    </defs>
    <g id="logo-personal-text"><path id="Pacman" d="M209.768,5.311l0.794,171.812c0,0 24.274,4.06 41.111,3.84c16.836,-0.221 85.615,-7.156 84.413,-90.379c-1.203,-83.223 -70.183,-88.936 -82.209,-88.936c-12.026,0 -44.109,3.663 -44.109,3.663Zm93.974,104.169c-1.313,2.817 -6.425,15.839 -18.614,24.835c-28.395,20.955 -57.548,2.349 -57.548,2.349c0,0 23.669,-45.635 0,-90.709c-0.032,-0.06 46.353,-31.843 76.341,26.735l-38.941,18.633l38.762,18.157Zm21.097,-24.639c3.54,0 6.415,2.882 6.415,6.432c0,3.551 -2.875,6.433 -6.415,6.433c-3.541,0 -6.415,-2.882 -6.415,-6.433c0,-3.55 2.874,-6.432 6.415,-6.432Zm-22.345,0c3.54,0 6.415,2.882 6.415,6.432c0,3.551 -2.875,6.433 -6.415,6.433c-3.541,0 -6.415,-2.882 -6.415,-6.433c0,-3.55 2.874,-6.432 6.415,-6.432Z" style="fill:#fff;"/><ellipse id="Food" cx="348.767" cy="90.263" rx="7.603" ry="7.619" style="fill:#fff;"/><g id="logo-personal-text1" serif:id="logo-personal-text" transform="matrix(0.325153,0,0,0.325153,-644.579,-429.775)"><text x="2159.74px" y="1559.06px" style="font-family:'Dosis-ExtraBold', 'Dosis';font-weight:800;font-size:123.019px;fill:#fff;">D</text><text x="2232.32px" y="1559.06px" style="font-family:'Dosis-ExtraBold', 'Dosis';font-weight:800;font-size:110.717px;fill:#fff;">A<tspan x="2293.33px 2358.54px " y="1559.06px 1559.06px ">VI</tspan>D</text><text x="2008.94px" y="1682.07px" style="font-family:'Dosis-ExtraBold', 'Dosis';font-weight:800;font-size:123.019px;fill:#fff;">B</text><text x="2079.31px" y="1682.07px" style="font-family:'Dosis-ExtraBold', 'Dosis';font-weight:800;font-size:110.717px;fill:#fff;">INGHAM</text></g><text id="logo-personal-text2" serif:id="logo-personal-text" x="253.934px" y="80.078px" style="font-family:'Dosis-ExtraBold', 'Dosis';font-weight:800;font-size:36px;fill:#fff;">©</text><path d="M181.421,47.916l0,69.456" style="stroke:#fff;stroke-width:6.1px;"/></g></svg>
