<?xml version="1.0" encoding="UTF-8" standalone="no"?><!DOCTYPE svg PUBLIC "-//W3C//DTD SVG 1.1//EN" "http://www.w3.org/Graphics/SVG/1.1/DTD/svg11.dtd"><svg width="100%" height="100%" viewBox="0 0 175 182" version="1.1" xmlns="http://www.w3.org/2000/svg" xmlns:xlink="http://www.w3.org/1999/xlink" xml:space="preserve" xmlns:serif="http://www.serif.com/" style="fill-rule:evenodd;clip-rule:evenodd;stroke-linejoin:round;stroke-miterlimit:1.41421;"><clipPath id="_clip1"><rect id="logo-twitter" x="0.094" y="0.026" width="174.701" height="181.417"/></clipPath><g clip-path="url(#_clip1)"><path d="M87.447,0.028c18.324,0 36.648,-0.004 54.973,0.001c17.698,0.005 32.374,15.243 32.376,33.623c0.004,38.057 0.006,76.115 0,114.172c-0.004,18.365 -14.7,33.618 -32.388,33.62c-36.649,0.004 -73.298,0.005 -109.947,0c-17.692,-0.003 -32.361,-15.248 -32.364,-33.634c-0.004,-38.058 -0.004,-76.116 0,-114.173c0.003,-18.381 14.669,-33.603 32.377,-33.608c18.324,-0.005 36.649,-0.001 54.973,-0.001Zm0.355,75.784c-17.396,-1.255 -32.001,-8.999 -43.802,-23.253c-5.108,11.692 -2.895,21.357 6.279,29.488c-0.108,0.162 -0.217,0.324 -0.325,0.485c-2.887,-0.812 -5.774,-1.624 -8.886,-2.499c0.728,11.119 6.422,18.12 16.581,21.552c-0.062,0.173 -0.123,0.346 -0.184,0.518c-2.835,0 -5.669,0 -8.852,0c3.683,9.479 10.153,14.452 19.961,15.468c-4.592,3.814 -9.398,6.249 -14.621,7.818c-5.203,1.563 -10.532,2.067 -16.063,1.559c0.198,0.335 0.245,0.498 0.35,0.578c0.292,0.221 0.598,0.425 0.914,0.605c20.465,11.596 41.3,12.214 61.452,0.12c19.906,-11.947 29.391,-30.995 30.23,-54.7c0.082,-2.322 0.712,-3.756 2.393,-5.271c2.851,-2.569 5.348,-5.563 7.994,-8.377c-0.141,-0.165 -0.282,-0.331 -0.424,-0.496c-1.76,0.581 -3.503,1.232 -5.286,1.722c-1.807,0.498 -3.655,0.837 -6.078,1.377c6.115,-5.57 8.288,-8.6 8.634,-11.544c-3.61,1.331 -7.332,2.706 -11.057,4.077c-1.254,0.461 -2.181,0.229 -3.262,-0.812c-11.599,-11.171 -30.934,-5.406 -34.92,10.509c-0.868,3.466 -0.699,7.212 -1.028,11.076Z" style="fill:#fff;"/></g></svg>