<?xml version="1.0" encoding="UTF-8" standalone="no"?><!DOCTYPE svg PUBLIC "-//W3C//DTD SVG 1.1//EN" "http://www.w3.org/Graphics/SVG/1.1/DTD/svg11.dtd"><svg width="100%" height="100%" viewBox="0 0 181 182" version="1.1" xmlns="http://www.w3.org/2000/svg" xmlns:xlink="http://www.w3.org/1999/xlink" xml:space="preserve" xmlns:serif="http://www.serif.com/" style="fill-rule:evenodd;clip-rule:evenodd;stroke-linejoin:round;stroke-miterlimit:1.41421;"><path d="M90.51,0.117c-49.938,0 -90.427,40.489 -90.427,90.427c0,39.959 25.907,73.848 61.843,85.802c4.52,0.828 6.17,-1.965 6.17,-4.349c0,-2.153 -0.083,-9.283 -0.127,-16.834c-22.732,4.143 -28.56,-5.571 -30.461,-10.663c-0.975,-2.615 -5.37,-10.641 -9.254,-12.763c-3.177,-1.735 -7.64,-5.87 -0.162,-5.958c7.141,-0.084 12.248,6.589 13.859,9.317c8.114,13.731 21.172,9.824 26.316,7.506c0.822,-5.828 3.162,-9.825 5.74,-12.076c-20.074,-2.285 -41.19,-10.045 -41.19,-44.695c0,-9.88 3.526,-17.937 9.3,-24.268c-0.922,-2.295 -4.035,-11.496 0.894,-23.942c0,0 7.584,-2.429 24.87,9.272c7.208,-2.014 14.94,-3.008 22.628,-3.041c7.683,0.033 15.421,1.037 22.64,3.052c17.254,-11.712 24.848,-9.273 24.848,-9.273c4.945,12.457 1.832,21.647 0.905,23.932c5.795,6.33 9.294,14.388 9.294,24.267c0,34.738 -21.15,42.388 -41.295,44.629c3.257,2.804 6.137,8.301 6.137,16.734c0,12.087 -0.121,21.834 -0.121,24.815c0,2.406 1.645,5.22 6.226,4.338c35.909,-11.977 61.794,-45.865 61.794,-85.802c0,-49.938 -40.489,-90.427 -90.427,-90.427Z" style="fill:#fff;fill-rule:nonzero;"/></svg>