<?xml version="1.0" encoding="UTF-8" standalone="no"?><!DOCTYPE svg PUBLIC "-//W3C//DTD SVG 1.1//EN" "http://www.w3.org/Graphics/SVG/1.1/DTD/svg11.dtd"><svg width="100%" height="100%" viewBox="0 0 145 182" version="1.1" xmlns="http://www.w3.org/2000/svg" xmlns:xlink="http://www.w3.org/1999/xlink" xml:space="preserve" xmlns:serif="http://www.serif.com/" style="fill-rule:evenodd;clip-rule:evenodd;stroke-linejoin:round;stroke-miterlimit:1.41421;"><clipPath id="_clip1"><rect id="logo-raspberry-pi-white" x="0.107" y="0.03" width="144.243" height="181.417"/></clipPath><g clip-path="url(#_clip1)"><g id="Layer_1"><path d="M39.156,0.03c-0.938,0.03 -1.934,0.381 -3.076,1.26c-2.783,-1.055 -5.478,-1.436 -7.909,0.732c-3.721,-0.468 -4.951,0.498 -5.859,1.67c-0.82,-0.029 -6.123,-0.82 -8.554,2.754c-6.122,-0.703 -8.056,3.544 -5.859,7.528c-1.259,1.904 -2.548,3.779 0.381,7.412c-1.025,2.021 -0.381,4.218 2.051,6.884c-0.645,2.841 0.615,4.862 2.9,6.415c-0.41,3.896 3.632,6.152 4.833,6.972c0.469,2.256 1.436,4.394 6.064,5.595c0.762,3.369 3.545,3.955 6.24,4.687c-8.906,5.097 -16.522,11.806 -16.464,28.239l-1.288,2.285c-10.283,6.035 -19.452,25.691 -5.098,41.627c0.938,5.009 2.52,8.583 3.896,12.567c2.08,15.995 15.761,23.494 19.364,24.373c5.273,3.954 10.897,7.733 18.514,10.34c7.177,7.295 14.939,10.078 22.761,10.048c0.117,0 0.234,0 0.351,0c7.822,0 15.585,-2.783 22.762,-10.048c7.616,-2.636 13.241,-6.386 18.514,-10.34c3.603,-0.879 17.254,-8.378 19.363,-24.373c1.406,-3.984 2.959,-7.558 3.896,-12.567c14.354,-15.965 5.185,-35.592 -5.039,-41.715l-1.318,-2.284c0.059,-16.434 -7.587,-23.143 -16.463,-28.24c2.695,-0.703 5.478,-1.289 6.24,-4.687c4.628,-1.172 5.595,-3.31 6.063,-5.595c1.201,-0.82 5.244,-3.076 4.834,-6.972c2.256,-1.553 3.515,-3.574 2.9,-6.415c2.431,-2.666 3.076,-4.863 2.051,-6.884c2.929,-3.633 1.64,-5.508 0.38,-7.412c2.197,-3.984 0.264,-8.231 -5.858,-7.528c-2.432,-3.574 -7.734,-2.754 -8.554,-2.754c-0.908,-1.142 -2.139,-2.138 -5.859,-1.67c-2.402,-2.167 -5.126,-1.787 -7.909,-0.732c-3.311,-2.578 -5.508,-0.498 -7.998,0.264c-4.013,-1.289 -4.921,0.468 -6.884,1.201c-4.364,-0.908 -5.712,1.084 -7.792,3.163l-2.431,-0.058c-6.591,3.837 -9.872,11.63 -11.015,15.614c-1.172,-4.014 -4.423,-11.806 -11.014,-15.614l-2.432,0.058c-2.109,-2.079 -3.427,-4.071 -7.792,-3.163c-1.963,-0.733 -2.871,-2.49 -6.884,-1.201c-1.728,-0.41 -3.252,-1.494 -5.009,-1.436Z" style="fill-rule:nonzero;"/><path d="M26.032,16.874c17.489,8.876 27.654,16.053 33.219,22.176c-2.841,11.249 -17.722,11.776 -23.171,11.454c1.113,-0.498 2.051,-1.113 2.373,-2.051c-1.377,-0.967 -6.211,-0.088 -9.579,-1.963c1.289,-0.263 1.904,-0.527 2.519,-1.464c-3.193,-0.996 -6.621,-1.875 -8.642,-3.516c1.084,0 2.109,0.235 3.545,-0.732c-2.871,-1.523 -5.918,-2.724 -8.29,-5.038c1.464,-0.03 3.075,0 3.544,-0.557c-2.607,-1.611 -4.833,-3.369 -6.65,-5.302c2.08,0.234 2.93,0.029 3.457,-0.322c-1.992,-1.992 -4.482,-3.692 -5.683,-6.152c1.523,0.527 2.929,0.732 3.955,-0.059c-0.674,-1.494 -3.545,-2.373 -5.215,-5.859c1.612,0.147 3.34,0.352 3.662,0c-0.761,-3.017 -2.05,-4.716 -3.31,-6.474c3.457,-0.058 8.7,0 8.466,-0.263l-2.139,-2.168c3.369,-0.908 6.826,0.147 9.345,0.908c1.113,-0.879 -0.029,-1.992 -1.406,-3.105c2.871,0.381 5.478,1.025 7.822,1.933c1.259,-1.113 -0.821,-2.226 -1.817,-3.339c4.453,0.82 6.328,1.992 8.203,3.164c1.347,-1.289 0.088,-2.373 -0.85,-3.486c3.34,1.23 5.068,2.783 6.884,4.364c0.615,-0.82 1.553,-1.406 0.41,-3.398c2.373,1.348 4.16,2.93 5.478,4.717c1.465,-0.908 0.879,-2.197 0.879,-3.34c2.461,1.992 4.043,4.072 5.947,6.152c0.381,-0.264 0.732,-1.23 1.025,-2.695c5.888,5.624 14.208,19.803 2.139,25.427c-10.253,-8.407 -22.527,-14.471 -36.12,-19.012Z" style="fill:#fff;fill-rule:nonzero;"/><path d="M118.806,16.874c-17.488,8.876 -27.653,16.053 -33.219,22.176c2.841,11.249 17.723,11.776 23.171,11.454c-1.113,-0.498 -2.05,-1.113 -2.373,-2.051c1.377,-0.967 6.211,-0.088 9.58,-1.963c-1.289,-0.263 -1.905,-0.527 -2.52,-1.464c3.193,-0.996 6.621,-1.875 8.642,-3.516c-1.084,0 -2.109,0.235 -3.545,-0.732c2.871,-1.523 5.918,-2.724 8.291,-5.038c-1.465,-0.03 -3.076,0 -3.545,-0.557c2.607,-1.611 4.833,-3.369 6.65,-5.302c-2.08,0.234 -2.93,0.029 -3.457,-0.322c1.992,-1.992 4.482,-3.692 5.683,-6.152c-1.523,0.527 -2.929,0.732 -3.955,-0.059c0.674,-1.494 3.545,-2.373 5.215,-5.859c-1.611,0.147 -3.34,0.352 -3.662,0c0.762,-3.017 2.051,-4.716 3.31,-6.474c-3.457,-0.058 -8.7,0 -8.466,-0.263l2.139,-2.168c-3.369,-0.908 -6.855,0.147 -9.345,0.908c-1.113,-0.879 0.029,-1.992 1.406,-3.105c-2.871,0.381 -5.478,1.025 -7.821,1.933c-1.26,-1.113 0.82,-2.226 1.816,-3.339c-4.453,0.82 -6.328,1.992 -8.203,3.164c-1.347,-1.289 -0.087,-2.373 0.85,-3.486c-3.34,1.23 -5.068,2.783 -6.884,4.364c-0.615,-0.82 -1.553,-1.406 -0.41,-3.398c-2.373,1.348 -4.16,2.93 -5.478,4.717c-1.465,-0.908 -0.879,-2.197 -0.879,-3.34c-2.461,1.992 -4.043,4.072 -5.947,6.152c-0.38,-0.264 -0.732,-1.23 -1.025,-2.695c-5.888,5.624 -14.208,19.803 -2.138,25.427c10.252,-8.407 22.527,-14.471 36.119,-19.012Z" style="fill:#fff;fill-rule:nonzero;"/><g><path d="M94.521,131.501c0.059,10.517 -9.257,19.071 -20.828,19.129c-11.571,0.059 -21.003,-8.407 -21.062,-18.924c0,-0.058 0,-0.146 0,-0.205c-0.059,-10.516 9.257,-19.07 20.828,-19.129c11.571,-0.058 21.004,8.408 21.062,18.924c0,0.088 0,0.147 0,0.205Z" style="fill:#fff;fill-rule:nonzero;"/><path d="M61.448,77.161c8.671,5.595 10.253,18.309 3.486,28.357c-6.737,10.048 -19.246,13.68 -27.946,8.085c-8.671,-5.595 -10.253,-18.309 -3.486,-28.357c6.767,-10.077 19.275,-13.68 27.946,-8.085Z" style="fill:#fff;fill-rule:nonzero;"/><path d="M84.884,76.165c-8.671,5.595 -10.253,18.309 -3.486,28.357c6.737,10.048 19.246,13.68 27.946,8.085c8.671,-5.595 10.253,-18.309 3.486,-28.357c-6.767,-10.077 -19.275,-13.709 -27.946,-8.085Z" style="fill:#fff;fill-rule:nonzero;"/><path d="M18.093,86.33c9.375,-2.461 3.164,38.17 -4.452,34.86c-8.408,-6.65 -11.103,-26.13 4.452,-34.86Z" style="fill:#fff;fill-rule:nonzero;"/><path d="M126.364,85.832c-9.374,-2.461 -3.164,38.17 4.453,34.86c8.407,-6.679 11.102,-26.13 -4.453,-34.86Z" style="fill:#fff;fill-rule:nonzero;"/><path d="M94.521,55.542c16.171,-2.695 29.617,6.767 29.089,24.051c-0.527,6.62 -35.035,-23.055 -29.089,-24.051Z" style="fill:#fff;fill-rule:nonzero;"/><path d="M49.848,55.044c-16.17,-2.695 -29.616,6.767 -29.089,24.051c0.528,6.62 35.036,-23.084 29.089,-24.051Z" style="fill:#fff;fill-rule:nonzero;"/><path d="M73.078,51.002c-9.638,-0.235 -18.924,7.06 -18.924,11.278c-0.029,5.156 7.617,10.428 19.012,10.546c11.6,0.088 19.012,-4.219 19.07,-9.521c0,-6.005 -10.604,-12.391 -19.158,-12.303Z" style="fill:#fff;fill-rule:nonzero;"/><path d="M73.664,156.548c8.407,-0.352 19.715,2.665 19.715,6.679c0.146,3.896 -10.253,12.713 -20.272,12.567c-10.399,0.439 -20.593,-8.408 -20.476,-11.454c-0.146,-4.482 12.684,-7.997 21.033,-7.792Z" style="fill:#fff;fill-rule:nonzero;"/><path d="M42.583,132.702c5.976,7.119 8.73,19.598 3.721,23.289c-4.717,2.812 -16.229,1.641 -24.373,-9.901c-5.507,-9.697 -4.804,-19.569 -0.937,-22.469c5.8,-3.456 14.705,1.231 21.589,9.081Z" style="fill:#fff;fill-rule:nonzero;"/><path d="M103.544,130.476c-6.474,7.47 -10.077,21.121 -5.361,25.515c4.511,3.398 16.668,2.93 25.632,-9.315c6.504,-8.232 4.336,-21.971 0.615,-25.633c-5.536,-4.218 -13.475,1.172 -20.886,9.433Z" style="fill:#fff;fill-rule:nonzero;"/></g></g></g></svg>