<?xml version="1.0" encoding="UTF-8" standalone="no"?><!DOCTYPE svg PUBLIC "-//W3C//DTD SVG 1.1//EN" "http://www.w3.org/Graphics/SVG/1.1/DTD/svg11.dtd"><svg width="100%" height="100%" viewBox="0 0 210 182" version="1.1" xmlns="http://www.w3.org/2000/svg" xmlns:xlink="http://www.w3.org/1999/xlink" xml:space="preserve" xmlns:serif="http://www.serif.com/" style="fill-rule:evenodd;clip-rule:evenodd;stroke-linejoin:round;stroke-miterlimit:1.41421;"><clipPath id="_clip1"><rect id="logo-resume" x="0.225" y="0.03" width="209.764" height="181.348"/></clipPath><g clip-path="url(#_clip1)"><path d="M33.823,0.504c-3.009,0.81 -6.609,3.086 -8.433,5.322c-3.236,4.088 -3.008,-2.506 -2.917,85.694l0.137,79.446l1.276,2.314c1.641,3.008 4.741,5.63 8.25,7.019l2.781,1.08l140.389,0l3.054,-1.273c3.692,-1.543 6.746,-4.242 8.205,-7.328l1.048,-2.198l0.137,-78.482c0.091,-57.578 0,-79.098 -0.365,-80.795c-0.319,-1.273 -0.957,-2.97 -1.458,-3.818c-1.413,-2.314 -4.786,-5.13 -7.612,-6.286l-2.553,-1.08l-69.967,-0.077c-58.389,-0.039 -70.286,0 -71.972,0.462Zm50.777,21.289c1.322,0.347 3.008,1.272 4.102,2.198c1.14,1.003 2.69,1.813 3.92,2.121c6.154,1.543 9.618,9.95 7.293,17.779c-0.866,2.97 -0.911,3.278 -0.228,3.895c1.641,1.543 0.274,6.634 -1.96,7.482c-0.592,0.193 -1.048,0.656 -1.048,0.964c0,1.157 -2.735,5.399 -4.558,7.096l-1.914,1.736l0.182,3.664c0.182,5.013 0.866,5.707 9.025,9.255c8.113,3.51 10.803,5.824 13.036,11.107l0.593,1.466l-32.545,0c-29.628,0 -32.591,-0.039 -32.591,-0.617c0,-1.389 2.918,-5.669 5.06,-7.482c1.686,-1.427 3.737,-2.545 7.566,-4.127c8.478,-3.471 9.709,-4.743 9.709,-9.95l0,-3.355l-1.823,-1.774c-1.869,-1.774 -4.558,-6.016 -4.558,-7.135c0,-0.347 -0.411,-0.732 -0.958,-0.848c-2.142,-0.579 -3.464,-5.631 -1.959,-7.482c0.683,-0.81 0.683,-1.041 -0.092,-3.239c-1.549,-4.551 -0.729,-11.223 2.006,-15.427c3.829,-6.016 14.221,-9.526 21.742,-7.327Zm71.881,27.497c4.832,1.157 7.293,5.592 5.151,9.372c-1.96,3.509 -5.014,4.242 -17.002,4.049c-6.791,-0.115 -8.797,-0.27 -9.891,-0.771c-3.191,-1.466 -5.059,-4.397 -4.558,-7.173c0.365,-2.122 2.826,-4.474 5.47,-5.284c2.233,-0.656 18.187,-0.81 20.83,-0.193Zm1.732,28.539c4.786,2.083 5.698,7.559 1.732,10.683c-2.279,1.812 -3.783,2.044 -13.902,2.044c-8.66,0 -9.572,-0.077 -11.441,-0.81c-6.016,-2.507 -5.971,-9.41 0.137,-12.071c1.14,-0.502 3.236,-0.617 11.532,-0.617c9.207,0 10.301,0.077 11.942,0.771Zm-1.002,34.517c3.19,1.157 5.15,3.393 5.196,5.939c0.045,2.854 -1.413,5.013 -4.194,6.209c-1.732,0.771 -2.871,0.771 -53.147,0.771c-46.356,0 -51.461,-0.077 -52.874,-0.617c-3.419,-1.388 -5.242,-4.705 -4.285,-7.713c0.638,-1.928 3.191,-4.242 5.197,-4.744c0.774,-0.193 23.884,-0.385 51.916,-0.385c44.579,-0.039 50.686,0.038 52.191,0.54Zm-1.277,27.613c3.966,0.771 6.473,3.355 6.473,6.71c0,2.931 -2.462,5.515 -5.926,6.364c-1.094,0.231 -18.734,0.385 -51.825,0.385c-47.678,0 -50.231,-0.038 -51.963,-0.732c-3.692,-1.427 -5.88,-4.86 -4.831,-7.752c0.957,-2.7 3.236,-4.512 6.427,-5.052c2.643,-0.425 99.321,-0.386 101.645,0.077Z" style="fill:#fff;fill-rule:nonzero;"/></g></svg>