<?xml version="1.0" encoding="UTF-8" standalone="no"?><!DOCTYPE svg PUBLIC "-//W3C//DTD SVG 1.1//EN" "http://www.w3.org/Graphics/SVG/1.1/DTD/svg11.dtd"><svg width="100%" height="100%" viewBox="0 0 176 182" version="1.1" xmlns="http://www.w3.org/2000/svg" xmlns:xlink="http://www.w3.org/1999/xlink" xml:space="preserve" xmlns:serif="http://www.serif.com/" style="fill-rule:evenodd;clip-rule:evenodd;stroke-linejoin:round;stroke-miterlimit:1.41421;"><clipPath id="_clip1"><rect id="logo-linkedin" x="0.008" y="0.03" width="175.289" height="181.417"/></clipPath><g clip-path="url(#_clip1)"><path d="M0.008,147.432l0,-113.386c0,-9.386 3.21,-17.402 9.631,-24.047c6.421,-6.646 14.165,-9.969 23.234,-9.969l109.551,0c9.068,0 16.813,3.323 23.234,9.969c6.421,6.645 9.631,14.661 9.631,24.047l0,113.386c0,9.386 -3.21,17.401 -9.631,24.047c-6.421,6.646 -14.166,9.969 -23.234,9.969l-109.551,0c-9.069,0 -16.813,-3.323 -23.234,-9.969c-6.421,-6.646 -9.631,-14.661 -9.631,-24.047Zm29.213,0c0,1.008 0.365,1.89 1.096,2.645c0.73,0.756 1.582,1.134 2.556,1.134l21.91,0c0.974,0 1.826,-0.362 2.556,-1.086c0.731,-0.725 1.096,-1.622 1.096,-2.693l0,-75.591c0,-1.008 -0.365,-1.89 -1.096,-2.645c-0.73,-0.756 -1.582,-1.134 -2.556,-1.134l-21.91,0c-0.974,0 -1.826,0.378 -2.556,1.134c-0.731,0.755 -1.096,1.637 -1.096,2.645l0,75.591Zm0,-102.52c0,4.032 1.37,7.48 4.108,10.347c2.739,2.866 6.056,4.299 9.951,4.299c4.078,0 7.425,-1.449 10.042,-4.347c2.739,-2.834 4.108,-6.267 4.108,-10.299c0,-4.031 -1.384,-7.48 -4.153,-10.346c-2.77,-2.867 -6.102,-4.3 -9.997,-4.3c-3.895,0 -7.212,1.433 -9.951,4.3c-2.738,2.866 -4.108,6.315 -4.108,10.346Zm36.517,102.52c0,1.008 0.578,1.89 1.735,2.645c1.156,0.756 2.312,1.134 3.469,1.134l20.814,0c0.853,0 1.598,-0.378 2.237,-1.134c0.639,-0.755 0.959,-1.637 0.959,-2.645l0,-41.197c0,-11.024 4.351,-16.535 13.054,-16.535c3.591,0 5.965,0.818 7.121,2.456c1.157,1.638 1.735,4.599 1.735,8.882l0,46.394c0,1.008 0.456,1.89 1.369,2.645c0.913,0.756 1.917,1.134 3.013,1.134l21.18,0c0.973,0 1.825,-0.362 2.556,-1.086c0.73,-0.725 1.095,-1.622 1.095,-2.693l0,-51.307c0,-9.89 -2.754,-17.465 -8.262,-22.725c-5.508,-5.259 -13.252,-7.889 -23.234,-7.889c-6.877,0 -12.872,1.795 -17.984,5.385c-1.035,0.63 -1.583,1.103 -1.643,1.418c0,-2.835 -1.309,-4.252 -3.926,-4.252l-20.084,0c-1.218,0 -2.389,0.315 -3.515,0.945c-1.126,0.629 -1.689,1.417 -1.689,2.362l0,76.063Z" style="fill:#fff;fill-rule:nonzero;"/></g></svg>