<?xml version="1.0" encoding="UTF-8" standalone="no"?><!DOCTYPE svg PUBLIC "-//W3C//DTD SVG 1.1//EN" "http://www.w3.org/Graphics/SVG/1.1/DTD/svg11.dtd"><svg width="100%" height="100%" viewBox="0 0 154 183" version="1.1" xmlns="http://www.w3.org/2000/svg" xmlns:xlink="http://www.w3.org/1999/xlink" xml:space="preserve" xmlns:serif="http://www.serif.com/" style="fill-rule:evenodd;clip-rule:evenodd;stroke-linejoin:round;stroke-miterlimit:1.41421;"><path d="M57.565,130.391l0,0.687c-5.533,1.745 -10.227,5.962 -15.375,8.676c-3.277,1.726 -7.159,2.23 -10.238,4.375c-2.381,1.657 -5.049,6.992 -0.615,8c3.76,0.854 7.817,-3.248 10.853,-5.034c5.925,-3.488 12.027,-4.958 18.579,-2.483c23.944,9.047 41.894,41.019 70.469,24.039c4.471,-2.657 7.822,-6.56 10.076,-11.465c2.252,-4.899 2.097,-9.795 2.097,-15.115c-3.889,1.271 -6.07,5.709 -9.61,7.879c-5.753,3.526 -13.428,3.764 -19.86,2.917c-18.84,-2.481 -40.27,-20.352 -59.579,-14.231c6.692,-7.767 19.786,-8.351 28.829,-10.913c11.168,-3.165 22.324,-10.682 29.925,-20.005c5.487,-6.731 9.803,-14.217 12.552,-22.671c16.175,-49.736 -32.943,-89.174 -75.79,-76.437c-35.91,10.675 -57.052,56.002 -36.861,91.552c9.249,16.284 27.564,26.46 44.548,30.229Zm9.252,-114.748c23.722,0 42.982,23.824 42.982,53.169c0,29.344 -19.26,53.169 -42.982,53.169c-23.722,0 -42.982,-23.825 -42.982,-53.169c0,-29.345 19.26,-53.169 42.982,-53.169Z" style="fill:#fff;"/></svg>