<?xml version="1.0" encoding="UTF-8" standalone="no"?><!DOCTYPE svg PUBLIC "-//W3C//DTD SVG 1.1//EN" "http://www.w3.org/Graphics/SVG/1.1/DTD/svg11.dtd"><svg width="100%" height="100%" viewBox="0 0 937 1000" version="1.1" xmlns="http://www.w3.org/2000/svg" xmlns:xlink="http://www.w3.org/1999/xlink" xml:space="preserve" xmlns:serif="http://www.serif.com/" style="fill-rule:evenodd;clip-rule:evenodd;stroke-linejoin:round;stroke-miterlimit:1.41421;"><path d="M0,793.088l0,-585.6c0,-48.475 17.161,-89.873 51.484,-124.196c34.323,-34.323 75.721,-51.484 124.196,-51.484l585.6,0c48.475,0 89.873,17.161 124.196,51.484c34.323,34.323 51.484,75.721 51.484,124.196l0,585.6c0,48.475 -17.161,89.873 -51.484,124.196c-34.323,34.323 -75.721,51.484 -124.196,51.484l-585.6,0c-48.475,0 -89.873,-17.161 -124.196,-51.484c-34.323,-34.323 -51.484,-75.721 -51.484,-124.196Zm156.16,0c0,5.205 1.952,9.76 5.856,13.664c3.904,3.904 8.459,5.856 13.664,5.856l117.12,0c5.205,0 9.76,-1.871 13.664,-5.612c3.904,-3.741 5.856,-8.377 5.856,-13.908l0,-390.4c0,-5.205 -1.952,-9.76 -5.856,-13.664c-3.904,-3.904 -8.459,-5.856 -13.664,-5.856l-117.12,0c-5.205,0 -9.76,1.952 -13.664,5.856c-3.904,3.904 -5.856,8.459 -5.856,13.664l0,390.4Zm0,-529.48c0,20.821 7.32,38.633 21.96,53.436c14.64,14.803 32.371,22.204 53.192,22.204c21.797,0 39.691,-7.483 53.68,-22.448c14.64,-14.64 21.96,-32.371 21.96,-53.192c0,-20.821 -7.401,-38.633 -22.204,-53.436c-14.803,-14.803 -32.615,-22.204 -53.436,-22.204c-20.821,0 -38.552,7.401 -53.192,22.204c-14.64,14.803 -21.96,32.615 -21.96,53.436Zm195.2,529.48c0,5.205 3.091,9.76 9.272,13.664c6.181,3.904 12.363,5.856 18.544,5.856l111.264,0c4.555,0 8.54,-1.952 11.956,-5.856c3.416,-3.904 5.124,-8.459 5.124,-13.664l0,-212.768c0,-56.933 23.261,-85.4 69.784,-85.4c19.195,0 31.883,4.229 38.064,12.688c6.181,8.459 9.272,23.749 9.272,45.872l0,239.608c0,5.205 2.44,9.76 7.32,13.664c4.88,3.904 10.248,5.856 16.104,5.856l113.216,0c5.205,0 9.76,-1.871 13.664,-5.612c3.904,-3.741 5.856,-8.377 5.856,-13.908l0,-264.984c0,-51.077 -14.721,-90.199 -44.164,-117.364c-29.443,-27.165 -70.841,-40.748 -124.196,-40.748c-36.763,0 -68.808,9.272 -96.136,27.816c-5.531,3.253 -8.459,5.693 -8.784,7.32c0,-14.64 -6.995,-21.96 -20.984,-21.96l-107.36,0c-6.507,0 -12.769,1.627 -18.788,4.88c-6.019,3.253 -9.028,7.32 -9.028,12.2l0,392.84Z" style="fill:#fff;fill-rule:nonzero;"/></svg>